<svg xmlns="http://www.w3.org/2000/svg" width="99" height="100" viewBox="0 0 99 100">
  <defs>
    <style>
      .cls-1 {
        fill: #fff;
        fill-rule: evenodd;
      }
    </style>
  </defs>
  <path class="cls-1" d="M85.51,14.637A49.947,49.947,0,0,0,69.717,3.958,48.391,48.391,0,0,0,32.167,3.6,49.98,49.98,0,0,0,16.407,13.79l-8.38-8.4a3.642,3.642,0,0,0-4.448-.912A3.892,3.892,0,0,0,1,8.321V37.492a4.021,4.021,0,0,0,1.225,2.93,3.942,3.942,0,0,0,2.9,1.237H34a3.855,3.855,0,0,0,3.8-2.6,3.73,3.73,0,0,0-.9-4.493l-8.831-8.986a31.983,31.983,0,0,1,10.314-6.609,32.457,32.457,0,0,1,12.119-2.311,31.872,31.872,0,0,1,12.8,2.637,33.238,33.238,0,0,1,10.54,7.13A33.616,33.616,0,0,1,80.9,37.069a33.3,33.3,0,0,1,0,25.85,33.618,33.618,0,0,1-7.059,10.646,33.238,33.238,0,0,1-10.54,7.13,31.872,31.872,0,0,1-12.8,2.637A32.554,32.554,0,0,1,24.464,70.374a2.007,2.007,0,0,0-1.483-.781,2.3,2.3,0,0,0-1.611.586l-8.831,8.986a1.93,1.93,0,0,0-.548,1.335,2.334,2.334,0,0,0,.419,1.465A49.1,49.1,0,0,0,50.507,100a47.767,47.767,0,0,0,19.21-3.972A49.93,49.93,0,0,0,85.51,85.351,50.492,50.492,0,0,0,96.082,69.4a49.843,49.843,0,0,0,0-38.808A50.513,50.513,0,0,0,85.51,14.637Z" transform="translate(-1)"/>
</svg>
